# xmcd
#
# Track frame offsets: 
#        150
#        16340
#        32838
#        50192
#        66389
#        82694
#        94767
#        109318
#        122816
#        137745
#        152255
#        168770
#        196990
#        213177
#        228227
#        241602
#        256859
#        270336
#
# Disc length: 3804 seconds
#
# Revision: 0
# Processed by: cddbd v1.5.2PL0 Copyright (c) Steve Scherf et al.
# Submitted via: ExactAudioCopy v1.1
#
DISCID=e20eda12
DTITLE=Luc Steeno - 30 - CD 2
DYEAR=2019
DGENRE=Chanson
TTITLE0=Mooi Zijn Alle Vrouwen
TTITLE1=Dan Gaan De Lichten Aan
TTITLE2=Zeven Dagen Lang
TTITLE3=Wanneer
TTITLE4=Ik Hoor Nog Steeds Dat Lied
TTITLE5=Ik Breng Opnieuw Zon In Je Hart
TTITLE6=Neem Me Een Keer In Je Armen
TTITLE7=Vindt U Het Goed, Mijnheer
TTITLE8=M'n Klein Geluk
TTITLE9=Ik Voel Me Goed
TTITLE10=Luc Steeno and Laura Lynn - Diep In Je Ogen
TTITLE11=Megamix
TTITLE12=De Zomer Van Je Leven
TTITLE13=Kijk Me Niet Zo Aan
TTITLE14=Onder De Zon
TTITLE15=Altijd, Altijd
TTITLE16=Hoe Doe Je Dat
TTITLE17=Mijn Alles
EXTD=
EXTT0=
EXTT1=
EXTT2=
EXTT3=
EXTT4=
EXTT5=
EXTT6=
EXTT7=
EXTT8=
EXTT9=
EXTT10=
EXTT11=
EXTT12=
EXTT13=
EXTT14=
EXTT15=
EXTT16=
EXTT17=
PLAYORDER=
